<?xml version="1.0" encoding="UTF-8"?>
<!DOCTYPE svg PUBLIC "-//W3C//DTD SVG 1.1//EN" "http://www.w3.org/Graphics/SVG/1.1/DTD/svg11.dtd">
<svg xmlns="http://www.w3.org/2000/svg" version="1.1" width="512px" height="512px" style="shape-rendering:geometricPrecision; text-rendering:geometricPrecision; image-rendering:optimizeQuality; fill-rule:evenodd; clip-rule:evenodd" xmlns:xlink="http://www.w3.org/1999/xlink">
<g><path style="opacity:0.998" fill="#faaf3b" d="M 242.5,-0.5 C 251.167,-0.5 259.833,-0.5 268.5,-0.5C 321.353,6.34184 359.52,33.6752 383,81.5C 403.566,138.016 392.732,187.516 350.5,230C 307.031,266.358 258.364,275.358 204.5,257C 149.879,233.525 120.879,192.025 117.5,132.5C 119.907,81.4932 142.907,42.9932 186.5,17C 204.188,7.60147 222.855,1.76814 242.5,-0.5 Z"/></g>
<g><path style="opacity:1" fill="#433e3b" d="M 163.5,78.5 C 179.503,78.3334 195.503,78.5001 211.5,79C 213.686,82.1813 216.186,85.0146 219,87.5C 219.667,90.1667 219.667,92.8333 219,95.5C 210.105,114.29 200.939,132.956 191.5,151.5C 195.459,152.327 199.459,152.827 203.5,153C 206.648,155.112 209.481,157.612 212,160.5C 212.861,166.585 212.527,172.585 211,178.5C 209.457,180.378 207.624,181.878 205.5,183C 190.167,183.667 174.833,183.667 159.5,183C 157.754,182.529 156.087,181.862 154.5,181C 151.548,177.887 149.215,174.387 147.5,170.5C 156.774,149.286 167.107,128.619 178.5,108.5C 169.745,109.699 163.079,106.699 158.5,99.5C 156.49,91.5344 158.157,84.5344 163.5,78.5 Z"/></g>
<g><path style="opacity:1" fill="#433e3b" d="M 229.5,77.5 C 234.93,77.161 240.264,77.661 245.5,79C 246.976,81.6432 248.976,83.8099 251.5,85.5C 252.897,87.9818 253.731,90.6484 254,93.5C 255.941,89.9523 257.607,86.2857 259,82.5C 260.637,80.1898 262.804,78.6898 265.5,78C 270.904,77.2282 276.238,77.5615 281.5,79C 283.322,81.8207 285.489,84.3207 288,86.5C 288.584,89.2567 288.25,91.9234 287,94.5C 280.061,108.044 273.395,121.711 267,135.5C 264.824,148.75 263.157,162.083 262,175.5C 260.923,178.913 258.756,181.413 255.5,183C 250.167,183.667 244.833,183.667 239.5,183C 237.114,180.403 234.614,177.903 232,175.5C 231.598,174.128 231.098,172.795 230.5,171.5C 232.592,157.91 233.759,144.243 234,130.5C 229.851,115.904 226.018,101.237 222.5,86.5C 222.283,81.3952 224.617,78.3952 229.5,77.5 Z"/></g>
<g><path style="opacity:1" fill="#433e3b" d="M 298.5,78.5 C 304.509,78.3338 310.509,78.5005 316.5,79C 319.627,81.9628 322.627,85.1294 325.5,88.5C 327.118,84.419 329.785,81.2523 333.5,79C 339.5,78.3333 345.5,78.3333 351.5,79C 354.333,81.1667 356.833,83.6667 359,86.5C 359.652,89.594 359.318,92.594 358,95.5C 351.229,107.377 344.729,119.377 338.5,131.5C 343.268,145.971 347.935,160.471 352.5,175C 352.205,177.923 350.871,180.257 348.5,182C 333.935,187.214 323.935,182.714 318.5,168.5C 316.413,171.673 314.579,175.006 313,178.5C 311.786,180.049 310.286,181.215 308.5,182C 302.167,182.667 295.833,182.667 289.5,182C 287.675,179.543 285.509,177.376 283,175.5C 282.333,173.167 282.333,170.833 283,168.5C 290.047,154.24 297.213,140.073 304.5,126C 300.197,112.924 296.197,99.7569 292.5,86.5C 293.401,82.9421 295.401,80.2754 298.5,78.5 Z"/></g>
<g><path style="opacity:1" fill="#faaf3b" d="M 228.5,82.5 C 233.43,82.1975 238.263,82.5308 243,83.5C 245.793,93.135 248.46,102.802 251,112.5C 255.114,102.442 259.614,92.6084 264.5,83C 269.167,82.3333 273.833,82.3333 278.5,83C 279.059,83.7247 279.392,84.5581 279.5,85.5C 272.941,99.6175 266.108,113.617 259,127.5C 258.178,129.788 257.511,132.122 257,134.5C 255.733,146.841 254.399,159.174 253,171.5C 252.097,172.701 250.931,173.535 249.5,174C 244.771,174.996 240.271,174.496 236,172.5C 236.733,159.666 237.9,146.832 239.5,134C 235.557,117.729 231.224,101.563 226.5,85.5C 227.193,84.4822 227.859,83.4822 228.5,82.5 Z"/></g>
<g><path style="opacity:1" fill="#faaf3b" d="M 166.5,82.5 C 180.504,82.3334 194.504,82.5001 208.5,83C 210.444,85.1529 210.944,87.6529 210,90.5C 198.895,112.377 188.061,134.377 177.5,156.5C 186.167,157.167 194.833,157.833 203.5,158.5C 203.987,159.446 204.32,160.446 204.5,161.5C 204.095,165.537 203.095,169.37 201.5,173C 185.833,173.667 170.167,173.667 154.5,173C 152.213,170.757 152.047,168.257 154,165.5C 165.372,143.255 176.872,121.088 188.5,99C 180.167,98.6667 171.833,98.3333 163.5,98C 162.378,94.5915 162.211,91.0915 163,87.5C 163.257,85.0935 164.424,83.4268 166.5,82.5 Z"/></g>
<g><path style="opacity:1" fill="#faaf3b" d="M 301.5,82.5 C 305.514,82.3345 309.514,82.5012 313.5,83C 314.308,83.3076 314.975,83.8076 315.5,84.5C 317.665,92.4944 319.832,100.494 322,108.5C 325.705,100.258 329.538,92.091 333.5,84C 338.77,82.2234 344.103,82.0568 349.5,83.5C 350.631,85.0745 350.798,86.7412 350,88.5C 342.757,101.155 335.923,113.989 329.5,127C 333.665,141.663 338.332,156.163 343.5,170.5C 343.392,171.442 343.059,172.275 342.5,173C 337.167,173.667 331.833,173.667 326.5,173C 323.145,164.605 319.978,156.105 317,147.5C 312.961,155.745 308.794,163.911 304.5,172C 298.956,173.404 293.29,173.904 287.5,173.5C 287.34,171.801 287.506,170.134 288,168.5C 295.047,154.24 302.213,140.073 309.5,126C 305.024,112.252 301.19,98.4191 298,84.5C 299.302,83.9152 300.469,83.2485 301.5,82.5 Z"/></g>
<g><path style="opacity:1" fill="#fcb24e" d="M 207.5,292.5 C 282.804,365.137 357.804,438.137 432.5,511.5C 417.833,511.5 403.167,511.5 388.5,511.5C 313.527,438.861 238.527,366.194 163.5,293.5C 171.335,290.167 179.502,287.5 188,285.5C 194.49,287.941 200.99,290.274 207.5,292.5 Z"/></g>
<g><path style="opacity:0.999" fill="#fea934" d="M 507.5,472.5 C 450.036,417.537 392.702,362.37 335.5,307C 328.904,300.91 322.904,294.41 317.5,287.5C 319.366,286.986 321.2,286.32 323,285.5C 392.288,303.488 445.621,342.821 483,403.5C 495.147,425.118 503.313,448.118 507.5,472.5 Z"/></g>
<g><path style="opacity:0.999" fill="#fdac3b" d="M 317.5,287.5 C 322.904,294.41 328.904,300.91 335.5,307C 392.702,362.37 450.036,417.537 507.5,472.5C 509.16,480.452 510.494,488.452 511.5,496.5C 511.5,501.5 511.5,506.5 511.5,511.5C 510.5,511.5 509.5,511.5 508.5,511.5C 438.003,442.17 367.003,373.337 295.5,305C 292.223,302.234 289.557,299.067 287.5,295.5C 297.852,294.079 307.852,291.412 317.5,287.5 Z"/></g>
<g><path style="opacity:1" fill="#fdb047" d="M 207.5,292.5 C 221.943,296.087 236.61,298.087 251.5,298.5C 324.804,369.137 397.804,440.137 470.5,511.5C 457.833,511.5 445.167,511.5 432.5,511.5C 357.804,438.137 282.804,365.137 207.5,292.5 Z"/></g>
<g><path style="opacity:1" fill="#fcb454" d="M 163.5,293.5 C 238.527,366.194 313.527,438.861 388.5,511.5C 375.833,511.5 363.167,511.5 350.5,511.5C 282.003,444.17 213.003,377.337 143.5,311C 140.882,308.894 138.882,306.394 137.5,303.5C 145.956,299.605 154.622,296.272 163.5,293.5 Z"/></g>
<g><path style="opacity:1" fill="#fdae41" d="M 287.5,295.5 C 289.557,299.067 292.223,302.234 295.5,305C 367.003,373.337 438.003,442.17 508.5,511.5C 495.833,511.5 483.167,511.5 470.5,511.5C 397.804,440.137 324.804,369.137 251.5,298.5C 263.672,298.96 275.672,297.96 287.5,295.5 Z"/></g>
<g><path style="opacity:1" fill="#fcb65a" d="M 137.5,303.5 C 138.882,306.394 140.882,308.894 143.5,311C 213.003,377.337 282.003,444.17 350.5,511.5C 337.833,511.5 325.167,511.5 312.5,511.5C 246.167,446.833 179.833,382.167 113.5,317.5C 121.136,312.344 129.136,307.677 137.5,303.5 Z"/></g>
<g><path style="opacity:1" fill="#fbb860" d="M 113.5,317.5 C 179.833,382.167 246.167,446.833 312.5,511.5C 299.833,511.5 287.167,511.5 274.5,511.5C 213.167,451.833 151.833,392.167 90.5,332.5C 97.683,326.743 105.35,321.743 113.5,317.5 Z"/></g>
<g><path style="opacity:1" fill="#fbba66" d="M 90.5,332.5 C 151.833,392.167 213.167,451.833 274.5,511.5C 259.833,511.5 245.167,511.5 230.5,511.5C 176.193,458.861 121.86,406.194 67.5,353.5C 74.2423,345.422 81.9089,338.422 90.5,332.5 Z"/></g>
<g><path style="opacity:1" fill="#fbbc6d" d="M 67.5,353.5 C 121.86,406.194 176.193,458.861 230.5,511.5C 217.833,511.5 205.167,511.5 192.5,511.5C 145.068,465.279 97.4009,419.279 49.5,373.5C 54.3956,365.933 60.3956,359.266 67.5,353.5 Z"/></g>
<g><path style="opacity:1" fill="#fabe73" d="M 49.5,373.5 C 97.4009,419.279 145.068,465.279 192.5,511.5C 179.833,511.5 167.167,511.5 154.5,511.5C 114.497,472.164 74.1638,433.164 33.5,394.5C 38.0973,386.907 43.4307,379.907 49.5,373.5 Z"/></g>
<g><path style="opacity:1" fill="#fac079" d="M 33.5,394.5 C 74.1638,433.164 114.497,472.164 154.5,511.5C 141.833,511.5 129.167,511.5 116.5,511.5C 84.5266,480.527 52.5266,449.527 20.5,418.5C 24.3249,410.181 28.6582,402.181 33.5,394.5 Z"/></g>
<g><path style="opacity:1" fill="#fac27f" d="M 20.5,418.5 C 52.5266,449.527 84.5266,480.527 116.5,511.5C 101.5,511.5 86.5,511.5 71.5,511.5C 50.8306,490.831 29.8306,470.497 8.5,450.5C 11.5154,439.453 15.5154,428.786 20.5,418.5 Z"/></g>
<g><path style="opacity:0.999" fill="#f9c587" d="M 8.5,450.5 C 29.8306,470.497 50.8306,490.831 71.5,511.5C 47.5,511.5 23.5,511.5 -0.5,511.5C -0.5,506.5 -0.5,501.5 -0.5,496.5C 0.979734,480.972 3.97973,465.639 8.5,450.5 Z"/></g>
</svg>
